<?xml version="1.0"?>
<svg xmlns="http://www.w3.org/2000/svg" xmlns:xlink="http://www.w3.org/1999/xlink" xmlns:svgjs="http://svgjs.com/svgjs" version="1.1" width="512" height="512" x="0" y="0" viewBox="0 0 512 512" style="enable-background:new 0 0 512 512" xml:space="preserve" class=""><g><g xmlns="http://www.w3.org/2000/svg"><circle cx="166" cy="406" r="15" fill="#ffffff" data-original="#000000" style="" class=""/><path d="m240.95 211.99v28.34l24.833-13.993z" fill="#ffffff" data-original="#000000" style="" class=""/><path d="m92 301h330v-149h-330zm118.95-115c0-11.523 12.506-18.763 22.504-12.988l70.1 40.5c10.041 5.802 9.968 20.36-.14 26.057l-70.1 39.5c-9.932 5.595-22.364-1.542-22.364-13.068z" fill="#ffffff" data-original="#000000" style="" class=""/><path d="m497 0h-482c-8.284 0-15 6.716-15 15v482c0 8.284 6.716 15 15 15h482c8.284 0 15-6.716 15-15v-482c0-8.284-6.716-15-15-15zm-346 30h30v31h-30zm-60 0h30v31h-30zm-61 0h31v31h-31zm406 391h-227.58c-6.192 17.459-22.865 30-42.42 30s-36.228-12.541-42.42-30h-47.58c-8.284 0-15-6.716-15-15s6.716-15 15-15h47.58c6.192-17.459 22.865-30 42.42-30s36.228 12.541 42.42 30h227.58c8.284 0 15 6.716 15 15s-6.716 15-15 15zm16-282.343v177.343c0 8.284-6.716 15-15 15h-360c-8.284 0-15-6.716-15-15v-179c0-8.284 6.716-15 15-15h360.09.024c8.273.013 14.976 6.724 14.976 15 0 .56-.03 1.113-.09 1.657zm30-77.657h-271v-31h271z" fill="#ffffff" data-original="#000000" style="" class=""/></g></g></svg>
