<?xml version="1.0"?>
<svg xmlns="http://www.w3.org/2000/svg" height="512px" viewBox="0 -40 448 448" width="512px" class=""><g><path d="m80 0h288v16h-288zm0 0" data-original="#000000" class="active-path" data-old_color="#000000" fill="#FFFFFF"/><path d="m40 32h368v16h-368zm0 0" data-original="#000000" class="active-path" data-old_color="#000000" fill="#FFFFFF"/><path d="m200 156.847656v118.304688l84.550781-59.152344zm0 0" data-original="#000000" class="active-path" data-old_color="#000000" fill="#FFFFFF"/><path d="m0 368h448v-304h-448zm216-16h-16v-16h16zm32 0h-16v-16h16zm32 0h-16v-16h16zm32 0h-16v-16h16zm112-272h16v16h-16zm0 256h16v16h-16zm-32-256h16v16h-16zm0 256h16v16h-16zm-32-256h16v16h-16zm0 256h16v16h-16zm-32-256h16v16h-16zm0 256h16v16h-16zm-32-256h16v16h-16zm-32 0h16v16h-16zm-32 0h16v16h-16zm-32 0h16v16h-16zm-11.695312 54.398438c2.644531-1.375 5.835937-1.171876 8.28125.539062l106.511718 74.511719c2.136719 1.496093 3.40625 3.941406 3.40625 6.550781s-1.269531 5.054688-3.40625 6.550781l-106.511718 74.511719c-2.445313 1.710938-5.640626 1.917969-8.285157.539062-2.644531-1.378906-4.300781-4.113281-4.300781-7.097656v-149.007812c0-2.984375 1.660156-5.71875 4.304688-7.097656zm-20.304688-54.398438h16v16h-16zm0 256h16v16h-16zm-32-256h16v16h-16zm0 256h16v16h-16zm-32-256h16v16h-16zm0 256h16v16h-16zm-32-256h16v16h-16zm0 256h16v16h-16zm-32-256h16v16h-16zm0 256h16v16h-16zm-32-256h16v16h-16zm0 256h16v16h-16zm0 0" data-original="#000000" class="active-path" data-old_color="#000000" fill="#FFFFFF"/></g> </svg>
