<?xml version="1.0"?>
<svg xmlns="http://www.w3.org/2000/svg" xmlns:xlink="http://www.w3.org/1999/xlink" version="1.1" id="Capa_1" x="0px" y="0px" viewBox="0 0 512 512" style="enable-background:new 0 0 512 512;" xml:space="preserve" width="512px" height="512px" class=""><g><g>
	<g>
		<path d="M305.231,230.954c-19.002,0-34.462,15.459-34.462,34.462c0,8.156-6.613,14.769-14.769,14.769s-14.769-6.613-14.769-14.769    c0-19.002-15.459-34.462-34.462-34.462s-34.462,15.459-34.462,34.462c0,28.532,15.853,54.183,41.374,66.943L256,353.518    l42.319-21.159c25.52-12.76,41.374-38.411,41.374-66.943C339.692,246.414,324.233,230.954,305.231,230.954z" data-original="#000000" class="active-path" data-old_color="#000000" fill="#FFFFFF"/>
	</g>
</g><g>
	<g>
		<path d="M433.231,74.216h-44.308V59.077c0-8.157-6.613-14.769-14.769-14.769h-64.897C304.614,19.131,282.5,0,256,0    s-48.614,19.131-53.257,44.308h-64.897c-8.157,0-14.769,6.613-14.769,14.769v15.139H78.769C70.613,74.216,64,80.829,64,88.986    v408.245C64,505.387,70.613,512,78.769,512h354.462c8.157,0,14.769-6.613,14.769-14.769V88.986    C448,80.829,441.387,74.216,433.231,74.216z M152.615,73.846h64c8.157,0,14.769-6.613,14.769-14.769v-4.923    c0-13.573,11.042-24.615,24.615-24.615s24.615,11.042,24.615,24.615v4.923c0,8.157,6.613,14.769,14.769,14.769h64v29.539H152.615    V73.846z M353.641,320.293c-10.199,16.502-24.761,29.81-42.113,38.486l-48.924,24.462c-2.078,1.04-4.341,1.559-6.605,1.559    s-4.526-0.52-6.605-1.559l-48.924-24.462c-17.351-8.675-31.913-21.984-42.113-38.486c-10.2-16.502-15.589-35.478-15.589-54.878    c0-35.29,28.71-64,64-64c19.773,0,37.481,9.015,49.231,23.148c11.749-14.133,29.458-23.148,49.231-23.148c35.29,0,64,28.71,64,64    C369.231,284.816,363.84,303.792,353.641,320.293z" data-original="#000000" class="active-path" data-old_color="#000000" fill="#FFFFFF"/>
	</g>
</g></g> </svg>
