<svg height="496pt" viewBox="0 0 496 496" width="496pt" xmlns="http://www.w3.org/2000/svg"><path d="m88 152h384v48h-384zm0 0" fill="#649d98"/><path d="m88 152h352v48h-352zm0 0" fill="#85d1ca"/><path d="m104 104h384v48h-384zm0 0" fill="#b2151b"/><path d="m104 104h352v48h-352zm0 0" fill="#ed1c24"/><path d="m104 56h384v48h-384zm0 0" fill="#f9a94b"/><path d="m104 56h352v48h-352zm0 0" fill="#fbb03b"/><path d="m88 8h384v48h-384zm0 0" fill="#a67c52"/><path d="m88 8h352v48h-352zm0 0" fill="#c69c6d"/><path d="m88 8h48v48h-48zm0 0" fill="#603813"/><path d="m104 56h48v48h-48zm0 0" fill="#f7931e"/><path d="m104 104h48v48h-48zm0 0" fill="#b2151b"/><path d="m88 152h48v48h-48zm0 0" fill="#436965"/><path d="m88 200h384v48h-384zm0 0" fill="#ab9293"/><path d="m88 200h352v48h-352zm0 0" fill="#e4c3c4"/><path d="m104 248h384v48h-384zm0 0" fill="#9a6ab7"/><path d="m104 248h352v48h-352zm0 0" fill="#ce8ef4"/><path d="m8 184h384v304h-384zm0 0" fill="#808080"/><path d="m8 184h352v304h-352zm0 0" fill="#999"/><path d="m8 184h48v304h-48zm0 0" fill="#666"/><path d="m344 336c0 66.273438-53.726562 120-120 120s-120-53.726562-120-120 53.726562-120 120-120 120 53.726562 120 120zm0 0" fill="#89aaa7"/><path d="m312 336c0-65.617188-46.5625-118.808594-104-118.808594s-104 53.191406-104 118.808594 46.5625 118.808594 104 118.808594 104-53.191406 104-118.808594zm0 0" fill="#b6e3df"/><path d="m248 336c0 13.253906-10.746094 24-24 24s-24-10.746094-24-24 10.746094-24 24-24 24 10.746094 24 24zm0 0" fill="#5b7270"/><path d="m392 496h-384c-4.425781 0-8-3.585938-8-8v-304c0-4.414062 3.574219-8 8-8h384c4.425781 0 8 3.585938 8 8v304c0 4.414062-3.574219 8-8 8zm-376-16h368v-288h-368zm0 0"/><path d="m48 184h16v304h-16zm0 0"/><path d="m224 464c-70.574219 0-128-57.425781-128-128s57.425781-128 128-128 128 57.425781 128 128-57.425781 128-128 128zm0-240c-61.761719 0-112 50.238281-112 112s50.238281 112 112 112 112-50.238281 112-112-50.238281-112-112-112zm0 0"/><path d="m320 336h-16c0-44.113281-35.886719-80-80-80v-16c52.9375 0 96 43.0625 96 96zm0 0"/><path d="m224 432c-52.9375 0-96-43.0625-96-96h16c0 44.113281 35.886719 80 80 80zm0 0"/><path d="m224 368c-17.648438 0-32-14.351562-32-32s14.351562-32 32-32 32 14.351562 32 32-14.351562 32-32 32zm0-48c-8.824219 0-16 7.175781-16 16s7.175781 16 16 16 16-7.175781 16-16-7.175781-16-16-16zm0 0"/><path d="m488 304h-96v-16h88v-32h-88v-16h96c4.425781 0 8 3.585938 8 8v48c0 4.414062-3.574219 8-8 8zm0 0"/><path d="m472 256h-80v-16h72v-32h-72v-16h80c4.425781 0 8 3.585938 8 8v48c0 4.414062-3.574219 8-8 8zm0 0"/><path d="m472 208h-80v-16h72v-32h-368v24h-16v-32c0-4.414062 3.574219-8 8-8h384c4.425781 0 8 3.585938 8 8v48c0 4.414062-3.574219 8-8 8zm0 0"/><path d="m488 160h-384c-4.425781 0-8-3.585938-8-8v-48c0-4.414062 3.574219-8 8-8h384c4.425781 0 8 3.585938 8 8v48c0 4.414062-3.574219 8-8 8zm-376-16h368v-32h-368zm0 0"/><path d="m488 112h-384c-4.425781 0-8-3.585938-8-8v-48c0-4.414062 3.574219-8 8-8h384c4.425781 0 8 3.585938 8 8v48c0 4.414062-3.574219 8-8 8zm-376-16h368v-32h-368zm0 0"/><path d="m472 64h-384c-4.425781 0-8-3.585938-8-8v-48c0-4.414062 3.574219-8 8-8h384c4.425781 0 8 3.585938 8 8v48c0 4.414062-3.574219 8-8 8zm-376-16h368v-32h-368zm0 0"/><path d="m128 8h16v48h-16zm0 0"/><path d="m144 56h16v48h-16zm0 0"/><path d="m144 104h16v48h-16zm0 0"/><path d="m128 152h16v32h-16zm0 0"/></svg>